<?xml version="1.0" encoding="UTF-8"?><svg id="Layer_2" xmlns="http://www.w3.org/2000/svg" viewBox="0 0 497.56 168.94"><defs><style>.cls-1{fill:#11cef6;}.cls-2{fill:#f8e03e;font-family:TTCrackerR, '210 Cracker';font-size:100px;letter-spacing:-.04em;}</style></defs><g id="Layer_1-2"><path class="cls-1" d="m0,140V0h22.3v140H0Z"/><path class="cls-1" d="m97.81,22.66h-24.06v117.34h-22.3V22.66h-24.06V0h70.41v22.66Z"/><path class="cls-1" d="m102.9,128.58V11.42L113.79,0h44.95l10.89,11.42v28.92h-22.3v-14.74l-2.63-2.76h-16.86l-2.63,2.76v88.79l2.63,2.76h16.86l2.63-2.76v-14.74h22.3v28.92l-10.89,11.42h-44.95l-10.89-11.42Z"/><path class="cls-1" d="m200.36,0v57.84h25.11V0h22.3v140h-22.3v-59.5h-25.11v59.5h-22.3V0h22.3Z"/><path class="cls-1" d="m301.33,40.34v-14.74l-2.63-2.76h-17.03l-2.63,2.76v29.11l2.63,2.76h31.26l10.89,11.42v59.69l-10.89,11.42h-45.3l-10.89-11.42v-28.92h22.3v14.92l2.63,2.76h17.03l2.63-2.76v-31.68l-2.63-2.76h-31.08l-10.89-11.42V11.42l10.89-11.42h45.3l10.89,11.42v28.92h-22.48Z"/><path class="cls-1" d="m399.49,11.42v117.16l-10.89,11.42h-44.95l-10.89-11.42V11.42l10.89-11.42h44.95l10.89,11.42Zm-25.11,11.42h-16.86l-2.46,2.58v89.34l2.46,2.58h16.86l2.63-2.58V25.42l-2.63-2.58Z"/><path class="cls-1" d="m409.67,140V0h24.06l28.97,85.84V0h22.3v140h-24.06l-28.97-85.84v85.84h-22.3Z"/><text class="cls-2" transform="translate(185.17 143.14) scale(.84 1)"><tspan x="0" y="0">イッチソン</tspan></text></g></svg>