<?xml version="1.0" encoding="UTF-8"?><svg id="Layer_1" xmlns="http://www.w3.org/2000/svg" viewBox="0 0 546.4 215.81"><defs><style>.cls-1{fill:#f8e03e;}.cls-2{fill:#11cef6;}</style></defs><path class="cls-2" d="m0,0h26.47v172.51H0V0Z"/><path class="cls-2" d="m84.08,18.16v154.35h-26.47V18.16h-25.09V0h76.64v18.16h-25.09Z"/><path class="cls-2" d="m113.31,13.62L129.85,0h40.8l16.54,13.62v38.82h-26.47v-29.74l-5.51-4.54h-9.93l-5.51,4.54v126.66l5.51,4.54h9.93l5.51-4.54v-29.51h26.47v39.04l-16.54,13.62h-40.8l-16.54-13.62V13.62Z"/><path class="cls-2" d="m277.62,0h-26.47v76.5h-27.84V0h-26.47v172.51h26.47v-76.94h27.84v76.94h16.54c-.27-2.34-.35-4.75-.35-7.16,0-4.98.38-9.95.38-14.4,0-2.1,0-4.2-.19-6.03,1.4-8.86,4.93-18.29,10.09-26.51V0Z"/><path class="cls-2" d="m346.27,75.82h-25.92l-5.51-4.54V22.7l5.51-4.54h9.65l5.51,4.54v27.24h26.47V13.62l-16.54-13.62h-40.53l-16.54,13.62v67.19l16.54,13.62h25.92l5.51,4.54v50.85l-5.51,4.54h-11.03l-5.52-4.54v-27.02h-26.46v36.1l16.08,13.23c7.78-3.01,14.52-8.92,20.71-15.95,3.07,1.57,4.02,3.41,4.02,5.24h.2c0,2.88-2.3,6.29-2.69,9.43-.37.57-.74,1.12-1.13,1.66h19.66c-1.57-1.36-3.06-2.77-4.47-4.21-1.39-4.07-1.99-8.41-1.99-12.21,0-13.56,6.75-26.04,15.68-35.53,2.81-2.96,5.8-5.98,8.92-8.87v-22.25l-16.54-13.62Zm9.21,68.88c-1.79,2.98-2.58,5.43-2.58,7.33,0,3.86,3.02,6.93,6.78,9.45l3.13-2.58v-24.86c-2.49,3.73-4.88,7.47-7.33,10.66Z"/><path class="cls-2" d="m424.84,118.05v31.31l-5.52,4.54h-15.16l-5.52-4.54v-34.62c-.43-.01-.87.02-1.3.12-1.58,0-3.17.27-4.16,1.9-2.58-1.36-5.16-1.9-7.35-1.9-5.24,0-9.67,2.79-13.65,6.86v37.18l10.19,8.38c22.93-3.13,46.89-8.65,57.44-35.6v-.27c-3.42-6.4-8.86-10.6-14.97-13.36ZM434.76,0h-46.04l-16.54,13.62v90.2c7.78-5.77,16.08-9.85,24.37-9.85.69,0,1.39.01,2.09.04V23.16l5.52-4.54h15.16l5.52,4.54v78.8c10.36,2.52,20.57,5.64,26.46,14.37V13.62l-16.54-13.62Zm-5.98,172.51h5.98l16.54-13.61v-11.49c-6.69,11.29-14.26,19.35-22.52,25.1Z"/><path class="cls-2" d="m522.15,0v83.3c1.46-1,3.26-1.66,5.52-1.83-.14.57-.14,1.15-.14,1.72,0,2.87,1.4,4.97,3.5,6.69-.28,2.67-.42,5.16-.42,7.45,0,12.81,3.77,24.08,3.63,37.08v1.72c1.82,3.24,2.1,7.07,2.1,11.27v4.4c0,4.2.28,8.21,2.24,11.65-.42,2.3-.7,4.59-.42,6.69-.05.79-.08,1.59-.08,2.37h8.06V0h-23.99Zm3.57,146.64c-2.94-3.63-3.36-8.22-3.36-13.19v-7.26c-.14-4.01-.28-8.03-2.1-11.28-7.2,8.21-6.05,22.05-8.95,33.66l6.16,23.94h8.96c-.27-2.09-.43-4.27-.43-6.57,0-4.97-3.22-13.38-.28-19.3ZM491.83,0h-28.68v172.51h.63c.01-.98.01-1.96.01-2.94,0-12.61-.56-25.23-.56-37.46,0-15.09.84-29.81,4.61-43.57,1.4-.76,3.22-2.29,5.04-2.29.83,0,1.67.38,2.37,1.34,5.04,12.23,7.41,25.22,10.77,37.83.24,1.55.63,3.22,1.12,4.97V54.71l18.69,72.59c2.1-6.74,3.66-13.77,4.93-20.8,2.49-3.17,3.65-7.73,5-12.09L491.83,0Zm-18.53,121.03c-.84,5.35-1.26,10.7-1.26,16.24,0,13.32-.12,23.74,2.78,35.24h12.32v-16.06c-2.16-5.72-4.77-11.51-6.44-16.69-.55-7.27-2.65-13.57-7.4-18.73Z"/><path class="cls-1" d="m255.58,196.51c-.4,1.36-1.79,1.63-3.57,1.63-1.59,0-3.37-.27-5.16-.27h-.4c-3.57-2.98-12.7-5.15-12.7-10.85,0-1.63.6-3.53,1.98-5.7,2.98-4.34,5.56-7.32,10.52-8.41,3.77,1.63,9.52,2.71,10.52,8.68v.81c0,3.26.4,5.43.4,7.32v.27c0,1.9-.4,3.8-1.59,6.51Z"/><path class="cls-1" d="m287.82,122.8v1.93c.4-.66.82-1.3,1.26-1.93h-1.26Z"/><path class="cls-1" d="m328.83,161.42c0,2.88-2.3,6.29-2.69,9.43-.37.57-.74,1.12-1.13,1.66-8.87,12.51-22.65,18.77-36.79,18.77-3.07,0-6.13-.27-9.2-1.05-7.75-3.4-10.48-10.16-11.33-17.72-.27-2.34-.35-4.75-.35-7.16,0-4.98.38-9.95.38-14.4,0-2.1,0-4.2-.19-6.03,1.4-8.86,4.93-18.29,10.09-26.51,6.88-10.99,16.64-19.8,28.03-22.2,1.34-.26,2.68-.52,4.02-.52,6.51,0,11.88,3.4,14.94,8.64-.19.79-.19,1.57,0,2.36,0,2.35.38,4.97.38,7.59s-.57,4.98-3.06,6.29c-1.34.52-2.49.78-3.45.52-6.32,0-6.32-11.52-11.68-11.26-1.34,0-3.07.79-5.75,2.88-5.07,2.19-8.96,5.75-11.97,10.09h-1.26v1.93c-4.78,7.85-7.11,17.77-8.61,26.74-.57,1.57-.76,3.14-.76,4.45,0,7.6,6.51,12.57,10.92,18.33h3.25c4.01,0,7.75-.76,11.28-2.12,7.78-3.01,14.52-8.92,20.71-15.95,3.07,1.57,4.02,3.41,4.02,5.24h.2Z"/><path class="cls-1" d="m451.3,116.33c-5.89-8.73-16.1-11.85-26.46-14.37-4.56-1.1-9.15-2.09-13.41-3.38-4.1-3.49-8.49-4.39-12.79-4.57-.7-.03-1.4-.04-2.09-.04-8.29,0-16.59,4.08-24.37,9.85-3.22,2.38-6.36,5.06-9.37,7.87-3.12,2.89-6.11,5.91-8.92,8.87-8.93,9.49-15.68,21.97-15.68,35.53,0,3.8.6,8.14,1.99,12.21,1.41,1.44,2.9,2.85,4.47,4.21,8.17,7.11,18.37,12.87,28.86,14.24,20.05-.52,38.97-2.9,55.25-14.24,8.26-5.75,15.83-13.81,22.52-25.1.88-1.48,1.74-3.02,2.59-4.61,0-.27,2.19-12.48,2.19-12.75-.7-5.72-2.38-10.18-4.78-13.72Zm-11.49,15.35c-10.55,26.95-34.51,32.47-57.44,35.6-3.38.47-6.74.87-10.03,1.29-2.79-1.9-8.24-4.13-12.66-7.09-3.76-2.52-6.78-5.59-6.78-9.45,0-1.9.79-4.35,2.58-7.33,2.45-3.19,4.84-6.93,7.33-10.66,2.93-4.43,5.98-8.84,9.37-12.32,3.98-4.07,8.41-6.86,13.65-6.86,2.19,0,4.77.54,7.35,1.9.99-1.63,2.58-1.9,4.16-1.9.43-.1.87-.13,1.3-.12.75.01,1.52.12,2.28.12h1.19c1.19,2.71,2.38,3.53,3.76,3.53,2.59,0,5.36-3.53,8.14-3.8,3.66.78,7.36,1.89,10.83,3.46,6.11,2.76,11.55,6.96,14.97,13.36v.27Z"/><path class="cls-1" d="m546.4,208.94c0,.57-.14,1.14-.42,1.72-3.21,1.52-5.87,5.15-9.5,5.15-.7,0-1.4-.19-2.24-.38l.28-3.63c0-16.03-6.37-25.91-8.09-39.29-.27-2.09-.43-4.27-.43-6.57,0-4.97-3.22-13.38-.28-19.3-2.94-3.63-3.36-8.22-3.36-13.19v-7.26c-.14-4.01-.28-8.03-2.1-11.28-7.2,8.21-6.05,22.05-8.95,33.66-.48,1.91-1.06,3.76-1.81,5.52-3.21,7.26-3.21,17.2-10.62,21.4h-1.82c-3.5,0-3.77-1.33-6.29-5.16-.32-4.29-1.82-9.06-3.63-13.88-2.16-5.72-4.77-11.51-6.44-16.69-.55-7.27-2.65-13.57-7.4-18.73-.84,5.35-1.26,10.7-1.26,16.24,0,13.32-.12,23.74,2.78,35.24.25,1.05.54,2.1.85,3.17l-.28,3.83c-1.26-.77-2.51,2.48-3.35,3.24-1.54.96-.56,2.68-4.06,2.68-1.39,0-2.79-.77-4.33-3.25.11-3.22.13-6.45.13-9.67.01-.98.01-1.96.01-2.94,0-12.61-.56-25.23-.56-37.46,0-15.09.84-29.81,4.61-43.57,1.4-.76,3.22-2.29,5.04-2.29.83,0,1.67.38,2.37,1.34,5.04,12.23,7.41,25.22,10.77,37.83.24,1.55.63,3.22,1.12,4.97,2.06,7.32,5.98,15.89,8.8,21.6,5.45-.39,3.64-7.84,5.03-11.85,1.89-4.1,3.49-8.4,4.86-12.84,2.1-6.74,3.66-13.77,4.93-20.8,2.49-3.17,3.65-7.73,5-12.09,1.38-4.48,2.96-8.76,6.39-11.11,1.46-1,3.26-1.66,5.52-1.83-.14.57-.14,1.15-.14,1.72,0,2.87,1.4,4.97,3.5,6.69-.28,2.67-.42,5.16-.42,7.45,0,12.81,3.77,24.08,3.63,37.08v1.72c1.82,3.24,2.1,7.07,2.1,11.27v4.4c0,4.2.28,8.21,2.24,11.65-.42,2.3-.7,4.59-.42,6.69-.05.79-.08,1.59-.08,2.37,0,9.87,3.71,18.48,3.71,28.4v1.53c1.4,2.1,4.61,3.63,4.61,6.5Z"/></svg>